<?xml version="1.0" encoding="UTF-8" standalone="no"?>
<!DOCTYPE svg PUBLIC "-//W3C//DTD SVG 1.1//EN" "http://www.w3.org/Graphics/SVG/1.1/DTD/svg11.dtd">
<svg width="100%" height="100%" viewBox="0 0 2522 938" version="1.1" xmlns="http://www.w3.org/2000/svg" xmlns:xlink="http://www.w3.org/1999/xlink" xml:space="preserve" xmlns:serif="http://www.serif.com/" style="fill-rule:evenodd;clip-rule:evenodd;stroke-linejoin:round;stroke-miterlimit:2;">
    <g transform="matrix(1,0,0,1,-870.80856,-4207.383953)">
        <g transform="matrix(2.109201,0,0,0.922708,-8647.725462,1.361065)">
            <g transform="matrix(0.703676,0,0,0.936468,1465.210804,326.196863)">
                <g transform="matrix(0.568282,0,0,0.976107,2830.780166,2030.96662)">
                    <g transform="matrix(3.765893,0,0,3.348159,706.972644,10.752984)">
                        <path d="M552.891,764.241L552.891,1057.282L513.299,1057.282L513.299,764.242L552.891,764.241ZM736.566,853.747L736.566,1057.282L691.131,1057.282L691.131,863.303C691.131,845.465 690.335,829.804 688.742,816.32C687.15,802.836 683.593,792.325 678.072,784.786C672.551,777.248 663.95,773.478 652.271,773.478C635.071,773.478 620.206,778.15 607.678,787.494C595.149,796.837 584.85,808.782 576.781,823.328C568.711,837.874 562.712,853.216 558.784,869.355C554.855,885.493 552.891,900.464 552.891,914.267L544.928,915.859C544.928,901.844 546.786,885.865 550.502,867.921C554.218,849.978 560.43,832.671 569.136,816.002C577.842,799.332 589.628,785.529 604.492,774.593C619.357,763.657 638.047,757.741 660.553,758.189C683.369,758.643 693.048,762.277 705.365,770.452C717.681,778.628 725.946,789.936 730.193,804.375C734.44,818.815 736.767,835.272 736.566,853.747Z" style="fill:rgb(206,112,49);fill-rule:nonzero;"/>
                    </g>
                    <g transform="matrix(-0.596721,0,0,-0.596721,4423.252463,4875.599697)">
                        <path d="M2418.617,2220.3L2160.562,2220.3L2160.562,2826.296L2207.549,2826.296C2324.041,2826.296 2418.617,2731.719 2418.617,2615.227L2418.617,2220.3ZM2215.089,2442.567C2215.367,2442.375 2215.646,2442.186 2215.927,2442C2229.003,2450.651 2237.65,2465.593 2237.65,2482.561C2237.65,2499.529 2229.003,2514.471 2215.927,2523.122C2215.646,2522.936 2215.367,2522.746 2215.089,2522.555C2214.812,2522.746 2214.533,2522.936 2214.252,2523.122C2201.176,2514.471 2192.529,2499.529 2192.529,2482.561C2192.529,2465.593 2201.176,2450.651 2214.252,2442C2214.533,2442.186 2214.812,2442.375 2215.089,2442.567Z" style="fill:rgb(206,112,49);"/>
                    </g>
                    <g transform="matrix(0.238672,0,0,0.238672,2351.230224,3056.219855)">
                        <path d="M3143.357,1516.091C3142.663,1516.571 3141.965,1517.043 3141.262,1517.509C3108.57,1495.88 3086.953,1458.523 3086.953,1416.1C3086.953,1373.676 3108.57,1336.319 3141.262,1314.691C3141.965,1315.156 3142.663,1315.629 3143.357,1316.109C3111.839,1337.929 3091.143,1374.589 3091.143,1416.1C3091.143,1457.61 3111.839,1494.27 3143.357,1516.091Z" style="fill:white;"/>
                    </g>
                    <g transform="matrix(0.35,0,0,0.35,1279.5,1122.5)">
                        <g transform="matrix(0.804407,0,0,0.830975,2644.784171,760.696333)">
                            <path d="M3019.883,5522.795L2853.3,5522.795C2791.55,5522.795 2741.417,5474.264 2741.417,5414.488L2741.417,5253.232L3019.883,5253.232L3019.883,5522.795Z" style="fill:rgb(206,112,49);"/>
                        </g>
                        <g transform="matrix(0.804407,0,0,0.830975,2644.784171,760.696333)">
                            <path d="M3362.992,5253.232L3362.992,5414.488C3362.992,5474.264 3312.859,5522.795 3251.109,5522.795L3084.527,5522.795L3084.527,5253.232L3362.992,5253.232Z" style="fill:rgb(206,112,49);"/>
                        </g>
                        <g transform="matrix(0.804407,0,0,0.830975,2644.784171,760.696333)">
                            <path d="M3084.527,4921.092L3251.109,4921.092C3312.859,4921.092 3362.992,4969.622 3362.992,5029.398L3362.992,5190.655L3084.527,5190.655L3084.527,4921.092Z" style="fill:rgb(206,112,49);"/>
                        </g>
                        <g transform="matrix(0.804407,0,0,0.830975,2644.784171,760.696333)">
                            <path d="M2741.417,5190.655L2741.417,5029.398C2741.417,4969.622 2791.55,4921.092 2853.3,4921.092L3019.883,4921.092L3019.883,5190.655L2741.417,5190.655Z" style="fill:rgb(206,112,49);"/>
                        </g>
                    </g>
                </g>
                <g transform="matrix(0.673767,0,0,1.157292,1127.826501,-569.414105)">
                    <g transform="matrix(375,0,0,375,5568.463656,4887.458868)">
                        <path d="M0.231,-0.46L0.231,-0.019L0.283,-0.019L0.283,-0L0.024,-0L0.024,-0.019L0.092,-0.019L0.092,-0.441L0.024,-0.441L0.024,-0.46L0.231,-0.46ZM0.536,-0.32L0.536,-0.019L0.604,-0.019L0.604,-0L0.345,-0L0.345,-0.019L0.397,-0.019L0.397,-0.307C0.397,-0.335 0.396,-0.358 0.394,-0.375C0.391,-0.392 0.387,-0.405 0.38,-0.413C0.373,-0.421 0.362,-0.425 0.349,-0.425C0.33,-0.425 0.313,-0.419 0.298,-0.407C0.284,-0.395 0.272,-0.379 0.262,-0.359C0.252,-0.339 0.244,-0.317 0.239,-0.293C0.234,-0.27 0.231,-0.247 0.231,-0.224L0.216,-0.222C0.216,-0.246 0.219,-0.272 0.224,-0.301C0.23,-0.329 0.239,-0.356 0.252,-0.382C0.266,-0.407 0.284,-0.429 0.307,-0.445C0.33,-0.462 0.359,-0.47 0.395,-0.47C0.433,-0.47 0.462,-0.463 0.482,-0.45C0.502,-0.437 0.516,-0.42 0.524,-0.397C0.532,-0.374 0.536,-0.349 0.536,-0.32Z" style="fill:rgb(206,112,49);fill-rule:nonzero;"/>
                    </g>
                    <g transform="matrix(375,0,0,375,5803.776156,4887.458868)">
                        <path d="M0.167,-0.589C0.143,-0.589 0.123,-0.597 0.107,-0.613C0.09,-0.63 0.082,-0.65 0.082,-0.674C0.082,-0.698 0.09,-0.718 0.107,-0.734C0.123,-0.751 0.143,-0.759 0.167,-0.759C0.191,-0.759 0.212,-0.751 0.228,-0.734C0.244,-0.718 0.252,-0.698 0.252,-0.674C0.252,-0.65 0.244,-0.63 0.228,-0.613C0.212,-0.597 0.191,-0.589 0.167,-0.589ZM0.237,-0.46L0.237,-0.019L0.305,-0.019L0.305,-0L0.03,-0L0.03,-0.019L0.097,-0.019L0.097,-0.441L0.03,-0.441L0.03,-0.46L0.237,-0.46Z" style="fill:rgb(206,112,49);fill-rule:nonzero;"/>
                    </g>
                    <g transform="matrix(375,0,0,375,5926.213656,4887.458868)">
                        <path d="M0.231,-0.46L0.231,-0.019L0.283,-0.019L0.283,-0L0.024,-0L0.024,-0.019L0.092,-0.019L0.092,-0.441L0.024,-0.441L0.024,-0.46L0.231,-0.46ZM0.536,-0.32L0.536,-0.019L0.604,-0.019L0.604,-0L0.345,-0L0.345,-0.019L0.397,-0.019L0.397,-0.307C0.397,-0.335 0.396,-0.358 0.394,-0.375C0.391,-0.392 0.387,-0.405 0.38,-0.413C0.373,-0.421 0.362,-0.425 0.349,-0.425C0.33,-0.425 0.313,-0.419 0.298,-0.407C0.284,-0.395 0.272,-0.379 0.262,-0.359C0.252,-0.339 0.244,-0.317 0.239,-0.293C0.234,-0.27 0.231,-0.247 0.231,-0.224L0.216,-0.222C0.216,-0.246 0.219,-0.272 0.224,-0.301C0.23,-0.329 0.239,-0.356 0.252,-0.382C0.266,-0.407 0.284,-0.429 0.307,-0.445C0.33,-0.462 0.359,-0.47 0.395,-0.47C0.433,-0.47 0.462,-0.463 0.482,-0.45C0.502,-0.437 0.516,-0.42 0.524,-0.397C0.532,-0.374 0.536,-0.349 0.536,-0.32Z" style="fill:rgb(206,112,49);fill-rule:nonzero;"/>
                    </g>
                    <g transform="matrix(375,0,0,375,6161.526156,4887.458868)">
                        <path d="M0.204,0.007C0.171,0.007 0.146,0.002 0.129,-0.009C0.112,-0.02 0.101,-0.035 0.094,-0.053C0.088,-0.072 0.085,-0.093 0.085,-0.116L0.085,-0.56C0.107,-0.56 0.132,-0.563 0.158,-0.568C0.185,-0.573 0.207,-0.58 0.224,-0.59L0.224,-0.101C0.224,-0.075 0.227,-0.058 0.233,-0.048C0.239,-0.037 0.249,-0.032 0.263,-0.032C0.278,-0.032 0.292,-0.038 0.307,-0.051C0.322,-0.063 0.334,-0.08 0.344,-0.102L0.361,-0.093C0.349,-0.063 0.329,-0.039 0.304,-0.021C0.278,-0.002 0.245,0.007 0.204,0.007ZM0.015,-0.441L0.015,-0.46L0.331,-0.46L0.331,-0.441L0.015,-0.441Z" style="fill:rgb(206,112,49);fill-rule:nonzero;"/>
                    </g>
                    <g transform="matrix(375,0,0,375,6299.901156,4887.458868)">
                        <path d="M0.024,-0L0.024,-0.019L0.092,-0.019L0.092,-0.731L0.024,-0.731L0.024,-0.75L0.232,-0.75L0.232,-0.019L0.285,-0.019L0.285,-0L0.024,-0ZM0.345,-0L0.345,-0.019L0.397,-0.019L0.397,-0.307C0.397,-0.335 0.396,-0.358 0.394,-0.375C0.391,-0.392 0.387,-0.405 0.38,-0.413C0.373,-0.421 0.362,-0.425 0.349,-0.425C0.33,-0.425 0.313,-0.419 0.298,-0.407C0.284,-0.395 0.272,-0.379 0.262,-0.359C0.252,-0.339 0.245,-0.317 0.24,-0.293C0.235,-0.27 0.232,-0.247 0.232,-0.224L0.217,-0.222C0.217,-0.246 0.22,-0.272 0.225,-0.301C0.231,-0.329 0.24,-0.356 0.253,-0.382C0.266,-0.407 0.285,-0.429 0.307,-0.445C0.331,-0.462 0.359,-0.47 0.394,-0.47C0.432,-0.47 0.461,-0.463 0.481,-0.45C0.502,-0.437 0.516,-0.42 0.524,-0.397C0.532,-0.374 0.536,-0.349 0.536,-0.32L0.536,-0.019L0.604,-0.019L0.604,-0L0.345,-0Z" style="fill:rgb(206,112,49);fill-rule:nonzero;"/>
                    </g>
                    <g transform="matrix(375,0,0,375,6535.213656,4887.458868)">
                        <path d="M0.12,-0.453C0.12,-0.481 0.117,-0.504 0.111,-0.522C0.105,-0.54 0.098,-0.556 0.09,-0.57C0.081,-0.584 0.073,-0.598 0.066,-0.612C0.059,-0.626 0.054,-0.642 0.051,-0.661C0.051,-0.664 0.05,-0.668 0.05,-0.67C0.05,-0.673 0.05,-0.676 0.05,-0.679C0.05,-0.704 0.058,-0.723 0.073,-0.738C0.089,-0.753 0.108,-0.76 0.13,-0.76C0.152,-0.76 0.171,-0.753 0.187,-0.738C0.202,-0.723 0.21,-0.704 0.21,-0.679L0.21,-0.67C0.21,-0.668 0.21,-0.664 0.209,-0.661C0.206,-0.642 0.201,-0.626 0.194,-0.612C0.187,-0.598 0.179,-0.584 0.17,-0.57C0.162,-0.556 0.155,-0.54 0.149,-0.522C0.143,-0.504 0.14,-0.481 0.14,-0.453L0.12,-0.453Z" style="fill:rgb(206,112,49);fill-rule:nonzero;"/>
                    </g>
                    <g transform="matrix(375,0,0,375,6632.526156,4887.458868)">
                        <path d="M0.041,0.01L0.041,-0.148L0.061,-0.148C0.071,-0.12 0.084,-0.095 0.101,-0.075C0.117,-0.054 0.136,-0.038 0.158,-0.027C0.18,-0.016 0.205,-0.011 0.232,-0.011C0.251,-0.011 0.268,-0.013 0.284,-0.019C0.299,-0.024 0.312,-0.032 0.321,-0.042C0.33,-0.052 0.335,-0.064 0.335,-0.079C0.335,-0.096 0.328,-0.11 0.314,-0.121C0.301,-0.131 0.283,-0.14 0.262,-0.147C0.24,-0.155 0.218,-0.162 0.194,-0.171C0.169,-0.179 0.147,-0.189 0.125,-0.201C0.104,-0.213 0.086,-0.23 0.073,-0.249C0.059,-0.27 0.052,-0.295 0.052,-0.327C0.052,-0.353 0.059,-0.377 0.071,-0.399C0.084,-0.42 0.101,-0.437 0.124,-0.45C0.147,-0.463 0.174,-0.469 0.206,-0.469C0.229,-0.469 0.249,-0.465 0.268,-0.458C0.287,-0.451 0.303,-0.441 0.318,-0.429L0.368,-0.47L0.386,-0.47L0.386,-0.33L0.366,-0.33C0.357,-0.351 0.346,-0.37 0.332,-0.388C0.318,-0.406 0.3,-0.42 0.28,-0.431C0.259,-0.443 0.235,-0.448 0.207,-0.448C0.192,-0.448 0.178,-0.446 0.166,-0.441C0.153,-0.436 0.143,-0.429 0.136,-0.42C0.129,-0.411 0.125,-0.401 0.125,-0.389C0.125,-0.373 0.132,-0.359 0.146,-0.349C0.16,-0.339 0.178,-0.33 0.2,-0.323C0.222,-0.315 0.246,-0.307 0.271,-0.299C0.295,-0.291 0.319,-0.28 0.341,-0.268C0.363,-0.256 0.381,-0.24 0.395,-0.22C0.409,-0.201 0.416,-0.176 0.416,-0.145C0.416,-0.111 0.407,-0.082 0.39,-0.059C0.373,-0.036 0.351,-0.019 0.324,-0.007C0.297,0.004 0.268,0.01 0.238,0.01C0.213,0.01 0.19,0.006 0.168,-0.002C0.146,-0.011 0.127,-0.022 0.11,-0.037L0.058,0.01L0.041,0.01Z" style="fill:rgb(206,112,49);fill-rule:nonzero;"/>
                    </g>
                    <g transform="matrix(375,0,0,375,6802.026156,4887.458868)">
                    </g>
                </g>
                <g transform="matrix(0.673767,0,0,1.157292,1126.716168,-165.320484)">
                    <g transform="matrix(375,0,0,375,5568.463656,4887.458868)">
                        <path d="M0.248,0.009C0.213,0.009 0.179,0 0.147,-0.019C0.115,-0.038 0.09,-0.065 0.07,-0.101C0.05,-0.137 0.04,-0.179 0.04,-0.23C0.04,-0.28 0.05,-0.322 0.07,-0.358C0.09,-0.394 0.115,-0.422 0.147,-0.441C0.179,-0.46 0.213,-0.47 0.248,-0.47C0.289,-0.47 0.323,-0.456 0.35,-0.43C0.377,-0.404 0.396,-0.367 0.406,-0.321L0.406,-0.731L0.339,-0.731L0.339,-0.75L0.546,-0.75L0.546,-0.019L0.614,-0.019L0.614,-0L0.406,-0L0.406,-0.138C0.396,-0.092 0.377,-0.056 0.35,-0.03C0.323,-0.004 0.289,0.009 0.248,0.009ZM0.283,-0.022C0.303,-0.023 0.322,-0.03 0.341,-0.046C0.36,-0.062 0.375,-0.085 0.388,-0.116C0.4,-0.147 0.406,-0.185 0.406,-0.23C0.406,-0.275 0.4,-0.313 0.388,-0.344C0.375,-0.375 0.36,-0.398 0.341,-0.414C0.322,-0.43 0.303,-0.438 0.283,-0.438C0.264,-0.438 0.249,-0.43 0.236,-0.415C0.224,-0.4 0.214,-0.378 0.208,-0.347C0.202,-0.316 0.199,-0.277 0.199,-0.23C0.199,-0.182 0.202,-0.143 0.208,-0.113C0.214,-0.082 0.224,-0.059 0.236,-0.045C0.249,-0.03 0.264,-0.023 0.283,-0.022Z" style="fill:rgb(206,112,49);fill-rule:nonzero;"/>
                    </g>
                    <g transform="matrix(375,0,0,375,5807.713656,4887.458868)">
                        <path d="M0.284,0.01C0.233,0.01 0.19,-0.001 0.153,-0.023C0.117,-0.045 0.089,-0.074 0.069,-0.111C0.049,-0.147 0.04,-0.187 0.04,-0.23C0.04,-0.273 0.049,-0.313 0.069,-0.35C0.089,-0.386 0.117,-0.415 0.153,-0.437C0.19,-0.459 0.233,-0.47 0.284,-0.47C0.334,-0.47 0.377,-0.459 0.414,-0.437C0.45,-0.415 0.478,-0.386 0.498,-0.35C0.518,-0.313 0.527,-0.273 0.527,-0.23C0.527,-0.187 0.518,-0.147 0.498,-0.111C0.478,-0.074 0.45,-0.045 0.414,-0.023C0.377,-0.001 0.334,0.01 0.284,0.01ZM0.284,-0.009C0.302,-0.009 0.317,-0.015 0.33,-0.027C0.342,-0.039 0.352,-0.055 0.359,-0.075C0.366,-0.096 0.371,-0.119 0.374,-0.146C0.377,-0.172 0.379,-0.2 0.379,-0.23C0.379,-0.26 0.377,-0.288 0.374,-0.315C0.371,-0.341 0.366,-0.364 0.359,-0.385C0.352,-0.405 0.342,-0.421 0.33,-0.433C0.317,-0.445 0.302,-0.451 0.284,-0.451C0.265,-0.451 0.25,-0.445 0.238,-0.433C0.226,-0.421 0.216,-0.405 0.209,-0.385C0.201,-0.364 0.196,-0.341 0.193,-0.315C0.19,-0.288 0.189,-0.26 0.189,-0.23C0.189,-0.2 0.19,-0.172 0.193,-0.146C0.196,-0.119 0.201,-0.096 0.209,-0.075C0.216,-0.055 0.226,-0.039 0.238,-0.027C0.25,-0.015 0.265,-0.009 0.284,-0.009Z" style="fill:rgb(206,112,49);fill-rule:nonzero;"/>
                    </g>
                    <g transform="matrix(375,0,0,375,6020.338656,4887.458868)">
                        <path d="M0.22,-0.213C0.22,-0.247 0.222,-0.279 0.228,-0.309C0.234,-0.34 0.243,-0.367 0.255,-0.391C0.267,-0.415 0.283,-0.435 0.302,-0.449C0.321,-0.463 0.344,-0.47 0.371,-0.47C0.394,-0.47 0.414,-0.465 0.429,-0.455C0.445,-0.445 0.457,-0.432 0.465,-0.416C0.473,-0.401 0.478,-0.384 0.478,-0.367C0.478,-0.344 0.47,-0.324 0.455,-0.307C0.44,-0.29 0.42,-0.281 0.395,-0.281C0.37,-0.281 0.351,-0.289 0.335,-0.304C0.32,-0.319 0.312,-0.337 0.312,-0.358C0.312,-0.382 0.32,-0.402 0.335,-0.417C0.351,-0.433 0.37,-0.44 0.395,-0.441C0.41,-0.44 0.424,-0.437 0.437,-0.43C0.449,-0.423 0.459,-0.414 0.466,-0.403C0.473,-0.392 0.476,-0.38 0.477,-0.367L0.457,-0.367C0.457,-0.381 0.453,-0.395 0.446,-0.408C0.439,-0.42 0.429,-0.43 0.415,-0.438C0.402,-0.446 0.387,-0.45 0.369,-0.45C0.348,-0.45 0.329,-0.443 0.312,-0.431C0.295,-0.419 0.281,-0.402 0.269,-0.38C0.257,-0.358 0.247,-0.333 0.241,-0.305C0.234,-0.276 0.231,-0.246 0.231,-0.213L0.22,-0.213ZM0.231,-0.46L0.231,-0.019L0.309,-0.019L0.309,-0L0.024,-0L0.024,-0.019L0.092,-0.019L0.092,-0.441L0.024,-0.441L0.024,-0.46L0.231,-0.46Z" style="fill:rgb(206,112,49);fill-rule:nonzero;"/>
                    </g>
                    <g transform="matrix(375,0,0,375,6205.963656,4887.458868)">
                        <path d="M0.231,-0.46L0.231,-0.019L0.281,-0.019L0.281,-0L0.024,-0L0.024,-0.019L0.092,-0.019L0.092,-0.441L0.024,-0.441L0.024,-0.46L0.231,-0.46ZM0.516,-0.32L0.516,-0.019L0.566,-0.019L0.566,-0L0.327,-0L0.327,-0.019L0.377,-0.019L0.377,-0.309C0.377,-0.337 0.376,-0.359 0.374,-0.377C0.372,-0.395 0.368,-0.407 0.362,-0.415C0.356,-0.423 0.347,-0.427 0.335,-0.427C0.319,-0.427 0.304,-0.421 0.291,-0.409C0.278,-0.397 0.268,-0.381 0.259,-0.361C0.249,-0.341 0.243,-0.319 0.238,-0.295C0.233,-0.272 0.231,-0.248 0.231,-0.225L0.219,-0.224C0.219,-0.248 0.221,-0.274 0.226,-0.302C0.231,-0.33 0.239,-0.357 0.251,-0.383C0.263,-0.408 0.28,-0.429 0.302,-0.445C0.324,-0.462 0.352,-0.47 0.387,-0.47C0.419,-0.47 0.445,-0.463 0.464,-0.45C0.483,-0.437 0.496,-0.42 0.504,-0.397C0.512,-0.374 0.516,-0.349 0.516,-0.32ZM0.8,-0.32L0.8,-0.019L0.869,-0.019L0.869,-0L0.612,-0L0.612,-0.019L0.662,-0.019L0.662,-0.309C0.662,-0.337 0.661,-0.359 0.659,-0.377C0.656,-0.395 0.652,-0.407 0.645,-0.415C0.639,-0.423 0.629,-0.427 0.617,-0.427C0.601,-0.427 0.586,-0.421 0.574,-0.409C0.561,-0.397 0.55,-0.381 0.542,-0.361C0.533,-0.341 0.527,-0.319 0.522,-0.295C0.518,-0.272 0.516,-0.248 0.516,-0.225L0.504,-0.224C0.504,-0.248 0.506,-0.274 0.51,-0.302C0.514,-0.33 0.522,-0.357 0.534,-0.383C0.545,-0.408 0.562,-0.429 0.584,-0.445C0.606,-0.462 0.634,-0.47 0.669,-0.47C0.702,-0.47 0.728,-0.463 0.747,-0.45C0.766,-0.437 0.779,-0.42 0.788,-0.397C0.796,-0.374 0.8,-0.349 0.8,-0.32Z" style="fill:rgb(206,112,49);fill-rule:nonzero;"/>
                    </g>
                    <g transform="matrix(375,0,0,375,6540.651156,4887.458868)">
                        <path d="M0.041,0.01L0.041,-0.148L0.061,-0.148C0.071,-0.12 0.084,-0.095 0.101,-0.075C0.117,-0.054 0.136,-0.038 0.158,-0.027C0.18,-0.016 0.205,-0.011 0.232,-0.011C0.251,-0.011 0.268,-0.013 0.284,-0.019C0.299,-0.024 0.312,-0.032 0.321,-0.042C0.33,-0.052 0.335,-0.064 0.335,-0.079C0.335,-0.096 0.328,-0.11 0.314,-0.121C0.301,-0.131 0.283,-0.14 0.262,-0.147C0.24,-0.155 0.218,-0.162 0.194,-0.171C0.169,-0.179 0.147,-0.189 0.125,-0.201C0.104,-0.213 0.086,-0.23 0.073,-0.249C0.059,-0.27 0.052,-0.295 0.052,-0.327C0.052,-0.353 0.059,-0.377 0.071,-0.399C0.084,-0.42 0.101,-0.437 0.124,-0.45C0.147,-0.463 0.174,-0.469 0.206,-0.469C0.229,-0.469 0.249,-0.465 0.268,-0.458C0.287,-0.451 0.303,-0.441 0.318,-0.429L0.368,-0.47L0.386,-0.47L0.386,-0.33L0.366,-0.33C0.357,-0.351 0.346,-0.37 0.332,-0.388C0.318,-0.406 0.3,-0.42 0.28,-0.431C0.259,-0.443 0.235,-0.448 0.207,-0.448C0.192,-0.448 0.178,-0.446 0.166,-0.441C0.153,-0.436 0.143,-0.429 0.136,-0.42C0.129,-0.411 0.125,-0.401 0.125,-0.389C0.125,-0.373 0.132,-0.359 0.146,-0.349C0.16,-0.339 0.178,-0.33 0.2,-0.323C0.222,-0.315 0.246,-0.307 0.271,-0.299C0.295,-0.291 0.319,-0.28 0.341,-0.268C0.363,-0.256 0.381,-0.24 0.395,-0.22C0.409,-0.201 0.416,-0.176 0.416,-0.145C0.416,-0.111 0.407,-0.082 0.39,-0.059C0.373,-0.036 0.351,-0.019 0.324,-0.007C0.297,0.004 0.268,0.01 0.238,0.01C0.213,0.01 0.19,0.006 0.168,-0.002C0.146,-0.011 0.127,-0.022 0.11,-0.037L0.058,0.01L0.041,0.01Z" style="fill:rgb(206,112,49);fill-rule:nonzero;"/>
                    </g>
                    <g transform="matrix(375,0,0,375,6706.401156,4887.458868)">
                        <path d="M0.204,0.007C0.171,0.007 0.146,0.002 0.129,-0.009C0.112,-0.02 0.101,-0.035 0.094,-0.053C0.088,-0.072 0.085,-0.093 0.085,-0.116L0.085,-0.56C0.107,-0.56 0.132,-0.563 0.158,-0.568C0.185,-0.573 0.207,-0.58 0.224,-0.59L0.224,-0.101C0.224,-0.075 0.227,-0.058 0.233,-0.048C0.239,-0.037 0.249,-0.032 0.263,-0.032C0.278,-0.032 0.292,-0.038 0.307,-0.051C0.322,-0.063 0.334,-0.08 0.344,-0.102L0.361,-0.093C0.349,-0.063 0.329,-0.039 0.304,-0.021C0.278,-0.002 0.245,0.007 0.204,0.007ZM0.015,-0.441L0.015,-0.46L0.331,-0.46L0.331,-0.441L0.015,-0.441Z" style="fill:rgb(206,112,49);fill-rule:nonzero;"/>
                    </g>
                    <g transform="matrix(375,0,0,375,6846.651156,4887.458868)">
                        <path d="M0.446,0.01C0.424,0.01 0.405,0.007 0.388,0.001C0.371,-0.005 0.358,-0.015 0.348,-0.028C0.339,-0.041 0.334,-0.058 0.334,-0.079L0.334,-0.304C0.334,-0.329 0.331,-0.352 0.327,-0.374C0.322,-0.396 0.313,-0.414 0.3,-0.428C0.286,-0.442 0.266,-0.449 0.24,-0.449C0.226,-0.449 0.21,-0.447 0.194,-0.444C0.178,-0.441 0.163,-0.436 0.148,-0.429C0.133,-0.422 0.122,-0.413 0.112,-0.402C0.103,-0.391 0.098,-0.377 0.099,-0.361L0.075,-0.361C0.075,-0.382 0.083,-0.399 0.099,-0.412C0.114,-0.425 0.133,-0.431 0.153,-0.431C0.175,-0.431 0.194,-0.425 0.211,-0.414C0.227,-0.402 0.236,-0.385 0.236,-0.363C0.236,-0.339 0.227,-0.321 0.21,-0.309C0.194,-0.297 0.175,-0.291 0.153,-0.291C0.131,-0.291 0.112,-0.297 0.097,-0.31C0.082,-0.322 0.074,-0.339 0.074,-0.361C0.074,-0.38 0.08,-0.396 0.09,-0.409C0.101,-0.423 0.116,-0.434 0.135,-0.443C0.153,-0.451 0.173,-0.458 0.196,-0.462C0.218,-0.466 0.241,-0.468 0.263,-0.468C0.314,-0.468 0.355,-0.461 0.386,-0.447C0.416,-0.432 0.438,-0.413 0.452,-0.388C0.466,-0.364 0.472,-0.336 0.473,-0.304L0.473,-0.064C0.472,-0.053 0.475,-0.044 0.479,-0.036C0.484,-0.028 0.492,-0.025 0.505,-0.025C0.513,-0.025 0.523,-0.028 0.534,-0.034C0.545,-0.041 0.555,-0.051 0.561,-0.064L0.573,-0.051C0.564,-0.032 0.548,-0.017 0.525,-0.006C0.503,0.005 0.476,0.01 0.446,0.01ZM0.181,0.01C0.138,0.01 0.104,-0.001 0.078,-0.023C0.052,-0.045 0.039,-0.075 0.039,-0.114C0.039,-0.158 0.058,-0.193 0.097,-0.219C0.136,-0.244 0.191,-0.257 0.262,-0.257L0.38,-0.257L0.38,-0.24L0.294,-0.24C0.269,-0.24 0.248,-0.234 0.233,-0.223C0.218,-0.211 0.207,-0.197 0.2,-0.18C0.193,-0.163 0.189,-0.146 0.189,-0.129C0.189,-0.113 0.191,-0.099 0.196,-0.086C0.2,-0.073 0.206,-0.063 0.215,-0.055C0.223,-0.047 0.234,-0.043 0.247,-0.043C0.261,-0.043 0.275,-0.048 0.288,-0.058C0.301,-0.068 0.312,-0.083 0.321,-0.104C0.329,-0.124 0.334,-0.15 0.334,-0.182L0.346,-0.182C0.346,-0.143 0.34,-0.109 0.326,-0.08C0.313,-0.052 0.294,-0.029 0.269,-0.014C0.245,0.002 0.216,0.01 0.181,0.01Z" style="fill:rgb(206,112,49);fill-rule:nonzero;"/>
                    </g>
                    <g transform="matrix(375,0,0,375,7049.901156,4887.458868)">
                        <path d="M0.232,-0.441L0.385,-0.137L0.304,0.023L0.065,-0.441L0.001,-0.441L0.001,-0.46L0.325,-0.46L0.325,-0.441L0.232,-0.441ZM0.605,-0.46L0.605,-0.441L0.535,-0.441L0.243,0.184C0.232,0.206 0.219,0.225 0.204,0.24C0.189,0.254 0.17,0.262 0.147,0.262C0.134,0.262 0.122,0.259 0.11,0.253C0.097,0.247 0.087,0.239 0.079,0.228C0.071,0.217 0.067,0.203 0.067,0.186C0.067,0.171 0.07,0.157 0.077,0.145C0.085,0.133 0.094,0.124 0.106,0.117C0.119,0.11 0.132,0.106 0.147,0.106C0.16,0.106 0.172,0.11 0.183,0.116C0.194,0.123 0.203,0.131 0.211,0.142C0.218,0.153 0.221,0.166 0.221,0.18L0.511,-0.441L0.42,-0.441L0.42,-0.46L0.605,-0.46Z" style="fill:rgb(206,112,49);fill-rule:nonzero;"/>
                    </g>
                    <g transform="matrix(375,0,0,375,7275.276156,4887.458868)">
                    </g>
                </g>
            </g>
        </g>
    </g>
</svg>
