<?xml version="1.0" encoding="UTF-8" standalone="no"?>
<!DOCTYPE svg PUBLIC "-//W3C//DTD SVG 1.1//EN" "http://www.w3.org/Graphics/SVG/1.1/DTD/svg11.dtd">
<svg width="100%" height="100%" viewBox="0 0 1170 1393" version="1.1" xmlns="http://www.w3.org/2000/svg" xmlns:xlink="http://www.w3.org/1999/xlink" xml:space="preserve" xmlns:serif="http://www.serif.com/" style="fill-rule:evenodd;clip-rule:evenodd;stroke-linejoin:round;stroke-miterlimit:2;">
    <g transform="matrix(1,0,0,1,-415.347628,-303.650302)">
        <g transform="matrix(1,0,0,1,-2050,-2050)">
            <g transform="matrix(1.390629,0,0,1.390629,-1205.914242,-1191.358454)">
                <g transform="matrix(3.765893,0,0,3.348159,706.972644,10.752984)">
                    <path d="M552.891,764.241L552.891,1057.282L513.299,1057.282L513.299,764.242L552.891,764.241ZM736.566,853.747L736.566,1057.282L691.131,1057.282L691.131,863.303C691.131,845.465 690.335,829.804 688.742,816.32C687.15,802.836 683.593,792.325 678.072,784.786C672.551,777.248 663.95,773.478 652.271,773.478C635.071,773.478 620.206,778.15 607.678,787.494C595.149,796.837 584.85,808.782 576.781,823.328C568.711,837.874 562.712,853.216 558.784,869.355C554.855,885.493 552.891,900.464 552.891,914.267L544.928,915.859C544.928,901.844 546.786,885.865 550.502,867.921C554.218,849.978 560.43,832.671 569.136,816.002C577.842,799.332 589.628,785.529 604.492,774.593C619.357,763.657 638.047,757.741 660.553,758.189C683.369,758.643 693.048,762.277 705.365,770.452C717.681,778.628 725.946,789.936 730.193,804.375C734.44,818.815 736.767,835.272 736.566,853.747Z" style="fill:rgb(206,112,49);fill-rule:nonzero;"/>
                </g>
                <g transform="matrix(-0.596721,0,0,-0.596721,4423.252463,4875.599697)">
                    <path d="M2418.617,2220.3L2160.562,2220.3L2160.562,2826.296L2207.549,2826.296C2324.041,2826.296 2418.617,2731.719 2418.617,2615.227L2418.617,2220.3ZM2215.089,2442.567C2215.367,2442.375 2215.646,2442.186 2215.927,2442C2229.003,2450.651 2237.65,2465.593 2237.65,2482.561C2237.65,2499.529 2229.003,2514.471 2215.927,2523.122C2215.646,2522.936 2215.367,2522.746 2215.089,2522.555C2214.812,2522.746 2214.533,2522.936 2214.252,2523.122C2201.176,2514.471 2192.529,2499.529 2192.529,2482.561C2192.529,2465.593 2201.176,2450.651 2214.252,2442C2214.533,2442.186 2214.812,2442.375 2215.089,2442.567Z" style="fill:rgb(206,112,49);"/>
                </g>
                <g transform="matrix(0.238672,0,0,0.238672,2351.230224,3056.219855)">
                    <path d="M3143.357,1516.091C3142.663,1516.571 3141.965,1517.043 3141.262,1517.509C3108.57,1495.88 3086.953,1458.523 3086.953,1416.1C3086.953,1373.676 3108.57,1336.319 3141.262,1314.691C3141.965,1315.156 3142.663,1315.629 3143.357,1316.109C3111.839,1337.929 3091.143,1374.589 3091.143,1416.1C3091.143,1457.61 3111.839,1494.27 3143.357,1516.091Z" style="fill:white;"/>
                </g>
                <g transform="matrix(0.35,0,0,0.35,1279.5,1122.5)">
                    <g transform="matrix(0.804407,0,0,0.830975,2644.784171,760.696333)">
                        <path d="M3019.883,5522.795L2853.3,5522.795C2791.55,5522.795 2741.417,5474.264 2741.417,5414.488L2741.417,5253.232L3019.883,5253.232L3019.883,5522.795Z" style="fill:rgb(206,112,49);"/>
                    </g>
                    <g transform="matrix(0.804407,0,0,0.830975,2644.784171,760.696333)">
                        <path d="M3362.992,5253.232L3362.992,5414.488C3362.992,5474.264 3312.859,5522.795 3251.109,5522.795L3084.527,5522.795L3084.527,5253.232L3362.992,5253.232Z" style="fill:rgb(206,112,49);"/>
                    </g>
                    <g transform="matrix(0.804407,0,0,0.830975,2644.784171,760.696333)">
                        <path d="M3084.527,4921.092L3251.109,4921.092C3312.859,4921.092 3362.992,4969.622 3362.992,5029.398L3362.992,5190.655L3084.527,5190.655L3084.527,4921.092Z" style="fill:rgb(206,112,49);"/>
                    </g>
                    <g transform="matrix(0.804407,0,0,0.830975,2644.784171,760.696333)">
                        <path d="M2741.417,5190.655L2741.417,5029.398C2741.417,4969.622 2791.55,4921.092 2853.3,4921.092L3019.883,4921.092L3019.883,5190.655L2741.417,5190.655Z" style="fill:rgb(206,112,49);"/>
                    </g>
                </g>
            </g>
        </g>
    </g>
</svg>
